<svg id="Layer_1" data-name="Layer 1" xmlns="http://www.w3.org/2000/svg" xmlns:xlink="http://www.w3.org/1999/xlink" viewBox="0 0 68 68"><defs><style>.cls-1{fill:none;}.cls-2{clip-path:url(#clip-path);}.cls-3{fill:#fff;}</style><clipPath id="clip-path"><rect class="cls-1" width="68" height="68"/></clipPath></defs><title>abstract-logo-sdk</title><g id="White_badge" data-name="White badge"><g class="cls-2"><g class="cls-2"><path class="cls-3" d="M28.42,32.94a6.64,6.64,0,1,0,6.64,6.64,6.65,6.65,0,0,0-6.64-6.64"/><path class="cls-3" d="M34,0C6.8,0,0,6.8,0,34S6.8,68,34,68s34-6.8,34-34S61.2,0,34,0M28.42,52.59a13,13,0,1,1,13-13,13,13,0,0,1-13,13m23.64-.53H45.69V22.31H15.94V15.94H52.06Z"/></g></g></g></svg>